<?xml version="1.0" standalone="no"?>
<!DOCTYPE svg PUBLIC "-//W3C//DTD SVG 20010904//EN"
 "http://www.w3.org/TR/2001/REC-SVG-20010904/DTD/svg10.dtd">
<svg version="1.0" xmlns="http://www.w3.org/2000/svg"
 width="144.000000pt" height="144.000000pt" viewBox="0 0 144.000000 144.000000"
 preserveAspectRatio="xMidYMid meet">
<metadata>
Created by potrace 1.11, written by Peter Selinger 2001-2013
</metadata>
<g transform="translate(0.000000,144.000000) scale(0.100000,-0.100000)"
fill="#000000" stroke="none">
<path d="M720 1280 c0 -4 -8 -6 -18 -3 -25 6 -64 -11 -104 -46 -33 -28 -36
-29 -62 -15 -64 32 -163 19 -209 -27 -27 -29 -56 -77 -50 -83 4 -3 -13 -6 -38
-5 -24 1 -55 -3 -69 -9 -14 -5 -28 -10 -32 -11 -19 -3 -61 -49 -75 -81 -21
-48 -19 -124 5 -163 l19 -33 -24 -17 c-13 -10 -32 -36 -43 -57 -18 -35 -20
-59 -20 -206 0 -160 9 -230 35 -262 23 -30 69 -72 77 -72 5 0 16 -7 25 -15 8
-8 18 -13 23 -10 5 3 20 1 35 -5 19 -7 24 -7 19 1 -4 8 -1 8 12 2 11 -5 37 -8
59 -6 22 2 46 3 53 3 6 0 32 0 57 0 25 0 52 0 60 0 8 0 35 0 60 0 25 0 52 0
60 0 8 0 35 0 60 0 25 0 52 0 60 0 8 0 35 0 60 0 25 0 52 0 60 0 8 0 35 0 60
0 25 0 52 0 60 0 8 0 42 0 75 0 33 0 67 0 75 0 8 0 34 -1 58 -1 90 -3 167 31
204 88 10 16 20 30 24 33 12 10 22 75 25 165 1 69 7 99 23 130 12 21 21 54 21
72 0 45 -29 113 -58 138 -24 21 -24 22 -8 57 19 40 24 88 12 132 -9 37 -54 96
-72 96 -8 0 -14 4 -14 9 0 14 -81 29 -107 20 -17 -6 -23 -3 -33 21 -16 38 -64
88 -98 101 -38 15 -115 19 -129 7 -7 -6 -13 -7 -13 -4 0 4 -7 0 -16 -9 -15
-15 -18 -14 -43 1 -14 10 -30 23 -36 31 -12 15 -105 45 -105 33z"/>
</g>
</svg>
